<svg width="289" height="98" viewBox="0 0 289 98" fill="none" xmlns="http://www.w3.org/2000/svg">
<path d="M112.019 75.148C109.03 75.148 106.847 74.3023 105.47 72.611C104.093 70.9197 103.366 68.5203 103.287 65.413C98.3703 64.8623 94.673 63.0333 92.195 59.926C89.7563 56.7793 88.537 52.1773 88.537 46.12C88.537 39.1973 90.0317 34.1823 93.021 31.075C96.0103 27.9677 100.514 26.414 106.532 26.414C112.589 26.414 117.093 27.9677 120.043 31.075C123.032 34.1823 124.527 39.1973 124.527 46.12C124.527 52.2953 123.229 56.9563 120.633 60.103C118.076 63.2497 114.202 65.0393 109.01 65.472C109.049 67.2813 109.384 68.5203 110.013 69.189C110.682 69.897 111.803 70.251 113.376 70.251C114.792 70.251 116.188 70.0543 117.565 69.661V74.44C116.936 74.6367 116.11 74.794 115.087 74.912C114.064 75.0693 113.042 75.148 112.019 75.148ZM106.532 60.162C110.505 60.162 113.415 59.0803 115.264 56.917C117.152 54.7143 118.096 51.1153 118.096 46.12C118.096 40.8493 117.152 37.1717 115.264 35.087C113.415 32.963 110.505 31.901 106.532 31.901C102.599 31.901 99.688 32.963 97.8 35.087C95.9513 37.1717 95.027 40.8493 95.027 46.12C95.027 51.1153 95.9513 54.7143 97.8 56.917C99.688 59.0803 102.599 60.162 106.532 60.162ZM130.856 65V27.004H148.32C152.568 27.004 155.655 28.1053 157.583 30.308C159.549 32.4713 160.533 35.4213 160.533 39.158C160.533 41.8327 159.864 44.114 158.527 46.002C157.189 47.89 155.262 49.2077 152.745 49.955C153.453 50.4663 154.003 51.017 154.397 51.607C154.79 52.197 155.183 52.9837 155.577 53.967L160.356 65H153.748L149.087 54.38C148.654 53.3573 148.123 52.6297 147.494 52.197C146.904 51.7643 145.881 51.548 144.426 51.548H137.287V65H130.856ZM137.287 46.356H146.609C148.929 46.356 150.758 45.7857 152.096 44.645C153.433 43.5043 154.102 41.6753 154.102 39.158C154.102 34.3987 151.801 32.019 147.199 32.019H137.287V46.356ZM179.395 65.59C174.36 65.59 170.663 64.3313 168.303 61.814C165.982 59.2967 164.822 55.6977 164.822 51.017C164.822 46.3363 166.002 42.7373 168.362 40.22C170.722 37.7027 174.4 36.444 179.395 36.444C184.43 36.444 188.127 37.7027 190.487 40.22C192.847 42.7373 194.027 46.3363 194.027 51.017C194.027 55.6977 192.847 59.2967 190.487 61.814C188.166 64.3313 184.469 65.59 179.395 65.59ZM179.395 60.162C182.345 60.162 184.43 59.454 185.649 58.038C186.908 56.5827 187.537 54.2423 187.537 51.017C187.537 47.7917 186.908 45.471 185.649 44.055C184.43 42.639 182.345 41.931 179.395 41.931C176.484 41.931 174.4 42.639 173.141 44.055C171.922 45.471 171.312 47.7917 171.312 51.017C171.312 54.2423 171.922 56.5827 173.141 58.038C174.4 59.454 176.484 60.162 179.395 60.162ZM213.677 65.59C208.643 65.59 204.945 64.3313 202.585 61.814C200.265 59.2967 199.104 55.6977 199.104 51.017C199.104 46.3363 200.284 42.7373 202.644 40.22C205.004 37.7027 208.682 36.444 213.677 36.444C218.712 36.444 222.409 37.7027 224.769 40.22C227.129 42.7373 228.309 46.3363 228.309 51.017C228.309 55.6977 227.129 59.2967 224.769 61.814C222.449 64.3313 218.751 65.59 213.677 65.59ZM213.677 60.162C216.627 60.162 218.712 59.454 219.931 58.038C221.19 56.5827 221.819 54.2423 221.819 51.017C221.819 47.7917 221.19 45.471 219.931 44.055C218.712 42.639 216.627 41.931 213.677 41.931C210.767 41.931 208.682 42.639 207.423 44.055C206.204 45.471 205.594 47.7917 205.594 51.017C205.594 54.2423 206.204 56.5827 207.423 58.038C208.682 59.454 210.767 60.162 213.677 60.162ZM234.567 65V37.034H240.467L240.762 39.984C242.138 38.8827 243.653 38.0173 245.305 37.388C246.957 36.7587 248.727 36.444 250.615 36.444C252.621 36.444 254.174 36.7783 255.276 37.447C256.416 38.0763 257.282 38.9613 257.872 40.102C259.17 39.04 260.664 38.1747 262.356 37.506C264.047 36.798 266.073 36.444 268.433 36.444C271.658 36.444 274.038 37.27 275.572 38.922C277.106 40.574 277.873 43.111 277.873 46.533V65H271.56V47.182C271.56 45.0187 271.107 43.5043 270.203 42.639C269.298 41.7737 267.823 41.341 265.778 41.341C264.44 41.341 263.162 41.577 261.943 42.049C260.763 42.521 259.74 43.229 258.875 44.173C258.993 44.6057 259.071 45.058 259.111 45.53C259.15 46.002 259.17 46.5133 259.17 47.064V65H253.211V47.241C253.211 45.1957 252.857 43.701 252.149 42.757C251.441 41.813 250.103 41.341 248.137 41.341C246.76 41.341 245.442 41.6753 244.184 42.344C242.964 42.9733 241.863 43.7403 240.88 44.645V65H234.567Z" fill="#00798C"/>
<rect x="2.5" y="20.5" width="25" height="26" rx="2.5" stroke="#F5B700" stroke-width="5"/>
<rect x="37.5" y="20.5" width="26" height="26" rx="2.5" stroke="#F5B700" stroke-width="5"/>
<rect x="2.5" y="55.5" width="25" height="25" rx="2.5" stroke="#F5B700" stroke-width="5"/>
<circle cx="15.5" cy="33.5" r="5.5" fill="#F5B700"/>
<circle cx="50.5" cy="33.5" r="5.5" fill="#F5B700"/>
<ellipse cx="15.5" cy="68" rx="5.5" ry="6" fill="#F5B700"/>
<path d="M50.3672 52.7627C58.7561 52.7629 65.5564 59.5633 65.5566 67.9521C65.5566 76.3412 58.7562 83.1423 50.3672 83.1426C41.978 83.1426 35.1768 76.3413 35.1768 67.9521C35.177 59.5631 41.9781 52.7627 50.3672 52.7627ZM57.874 59.9619C57.1508 59.5184 56.2048 59.7449 55.7607 60.4678L48.7471 71.8936L44.832 67.9893C44.231 67.3899 43.2576 67.3913 42.6582 67.9922C42.0588 68.5933 42.06 69.5666 42.6611 70.166L47.8193 75.3096C48.1055 75.5949 48.4763 75.7427 48.8506 75.7559C49.4512 75.8583 50.0806 75.5969 50.4189 75.0459L58.3799 62.0762C58.824 61.3527 58.5975 60.406 57.874 59.9619Z" fill="#00798C"/>
</svg>
